<svg width="660" height="170" viewBox="0 0 660 170" fill="none" xmlns="http://www.w3.org/2000/svg">
<g clip-path="url(#clip0_10507_2557)">
<rect width="660" height="170" fill="#111F3B"/>
<path d="M239.313 63.1081V59.4121H251.241V70.9201C248.511 73.6921 243.975 75.4561 239.901 75.4561C231.795 75.4561 224.865 68.6101 224.865 60.5041C224.865 52.3981 231.795 45.5941 239.901 45.5941C243.975 45.5941 248.511 47.3161 251.241 50.1301L248.259 52.9861C246.285 50.8441 242.883 49.5001 239.901 49.5001C234.105 49.5001 229.233 54.5401 229.233 60.5041C229.233 66.5101 234.105 71.5501 239.901 71.5501C242.337 71.5501 245.067 70.6681 247.041 69.1561V63.1081H239.313ZM279.975 74.9521L277.455 69.0721H262.419L259.899 74.9521H255.195L267.585 46.0981H272.289L284.679 74.9521H279.975ZM264.057 65.2501H275.817L269.937 51.5581L264.057 65.2501ZM299.249 75.4141C294.419 75.4141 290.429 73.7341 287.363 70.7941L289.925 67.6441C292.487 70.0801 295.511 71.6761 299.417 71.6761C303.407 71.6761 305.465 69.5761 305.465 67.2661C305.465 64.5361 303.071 63.4861 298.241 62.3941C292.361 61.0081 288.455 59.2441 288.455 54.0361C288.455 49.2061 292.655 45.5521 298.451 45.5521C302.903 45.5521 306.221 47.1901 308.993 49.6261L306.557 52.8181C304.121 50.5921 301.223 49.2901 298.283 49.2901C295.049 49.2901 292.781 51.3481 292.781 53.6581C292.781 56.3461 295.259 57.2701 300.005 58.4041C305.759 59.7481 309.749 61.6801 309.749 66.8461C309.749 71.7181 306.053 75.4141 299.249 75.4141ZM337.311 75.4141C332.481 75.4141 328.491 73.7341 325.425 70.7941L327.987 67.6441C330.549 70.0801 333.573 71.6761 337.479 71.6761C341.469 71.6761 343.527 69.5761 343.527 67.2661C343.527 64.5361 341.133 63.4861 336.303 62.3941C330.423 61.0081 326.517 59.2441 326.517 54.0361C326.517 49.2061 330.717 45.5521 336.513 45.5521C340.965 45.5521 344.283 47.1901 347.055 49.6261L344.619 52.8181C342.183 50.5921 339.285 49.2901 336.345 49.2901C333.111 49.2901 330.843 51.3481 330.843 53.6581C330.843 56.3461 333.321 57.2701 338.067 58.4041C343.821 59.7481 347.811 61.6801 347.811 66.8461C347.811 71.7181 344.115 75.4141 337.311 75.4141ZM361.046 74.9521V50.0461H351.596V46.0981H374.78V50.0461H365.288V74.9521H361.046ZM399.617 74.9521L397.097 69.0721H382.061L379.541 74.9521H374.837L387.227 46.0981H391.931L404.321 74.9521H399.617ZM383.699 65.2501H395.459L389.579 51.5581L383.699 65.2501ZM413.874 74.9521V50.0461H404.424V46.0981H427.608V50.0461H418.116V74.9521H413.874ZM432.473 74.9521V46.0981H436.715V74.9521H432.473ZM456.914 75.4561C448.808 75.4561 441.92 68.6101 441.92 60.5041C441.92 52.3981 448.808 45.5941 456.914 45.5941C465.02 45.5941 471.824 52.3981 471.824 60.5041C471.824 68.6101 465.02 75.4561 456.914 75.4561ZM456.914 71.5501C462.668 71.5501 467.498 66.5101 467.498 60.5041C467.498 54.5401 462.668 49.5001 456.914 49.5001C451.16 49.5001 446.288 54.5401 446.288 60.5041C446.288 66.5101 451.16 71.5501 456.914 71.5501ZM477.519 74.9521V46.0981H481.761L498.351 67.9801V46.0981H502.593V74.9521H498.351L481.761 53.0701V74.9521H477.519Z" fill="#D7E1F4"/>
<path d="M231.326 94.0531C231.326 93.4281 231.119 92.9546 230.707 92.6326C230.294 92.3069 229.735 92.144 229.03 92.144C228.515 92.144 228.051 92.2273 227.638 92.394C227.226 92.5607 226.888 92.7898 226.627 93.0815C226.366 93.3732 226.205 93.7046 226.144 94.0758C226.095 94.3864 226.127 94.6535 226.241 94.877C226.354 95.0966 226.515 95.2804 226.724 95.4281C226.936 95.572 227.163 95.6913 227.405 95.786C227.648 95.877 227.871 95.9508 228.076 96.0076L229.212 96.3258C229.496 96.4054 229.813 96.5152 230.161 96.6554C230.51 96.7955 230.835 96.9868 231.138 97.2292C231.441 97.4679 231.672 97.7747 231.832 98.1497C231.994 98.5247 232.03 98.9849 231.94 99.5304C231.833 100.159 231.574 100.727 231.161 101.235C230.752 101.742 230.21 102.146 229.536 102.445C228.866 102.744 228.083 102.894 227.19 102.894C226.356 102.894 225.655 102.76 225.087 102.491C224.523 102.222 224.106 101.847 223.837 101.366C223.572 100.885 223.47 100.326 223.53 99.6895H224.985C224.947 100.129 225.034 100.492 225.246 100.78C225.458 101.064 225.754 101.277 226.133 101.417C226.512 101.553 226.932 101.621 227.394 101.621C227.932 101.621 228.428 101.534 228.883 101.36C229.341 101.182 229.72 100.936 230.019 100.621C230.322 100.303 230.508 99.9319 230.576 99.5076C230.644 99.1213 230.591 98.8069 230.417 98.5645C230.243 98.322 229.991 98.1251 229.661 97.9735C229.332 97.822 228.97 97.6895 228.576 97.5758L227.212 97.1667C226.349 96.9054 225.691 96.5323 225.241 96.0474C224.794 95.5626 224.633 94.9281 224.758 94.144C224.871 93.4925 225.146 92.9243 225.582 92.4395C226.017 91.9508 226.557 91.572 227.201 91.3031C227.845 91.0304 228.538 90.894 229.28 90.894C230.03 90.894 230.672 91.0304 231.207 91.3031C231.741 91.572 232.138 91.9451 232.4 92.4224C232.661 92.8959 232.758 93.4395 232.69 94.0531H231.326ZM237.074 102.871C236.253 102.871 235.578 102.678 235.052 102.292C234.529 101.905 234.165 101.373 233.961 100.695C233.756 100.017 233.726 99.2425 233.87 98.3713C234.014 97.4849 234.306 96.7027 234.745 96.0247C235.184 95.3429 235.732 94.8107 236.387 94.4281C237.042 94.0417 237.764 93.8485 238.552 93.8485C239.165 93.8485 239.699 93.9622 240.154 94.1895C240.609 94.4167 240.959 94.7349 241.205 95.144C241.451 95.5531 241.567 96.0304 241.552 96.5758H240.211C240.173 96.1781 240.003 95.8258 239.699 95.519C239.4 95.2084 238.957 95.0531 238.37 95.0531C237.847 95.0531 237.366 95.1895 236.927 95.4622C236.487 95.7311 236.118 96.1118 235.819 96.6042C235.52 97.0929 235.317 97.6667 235.211 98.3258C235.097 99.0001 235.107 99.5872 235.239 100.087C235.372 100.587 235.612 100.975 235.961 101.252C236.309 101.528 236.749 101.667 237.279 101.667C237.628 101.667 237.953 101.606 238.256 101.485C238.559 101.364 238.828 101.189 239.063 100.962C239.298 100.735 239.484 100.462 239.62 100.144H240.961C240.794 100.659 240.527 101.123 240.16 101.536C239.792 101.945 239.347 102.271 238.824 102.513C238.302 102.752 237.718 102.871 237.074 102.871ZM245.035 102.894C244.482 102.894 243.997 102.79 243.58 102.581C243.164 102.369 242.855 102.064 242.654 101.667C242.453 101.265 242.398 100.78 242.489 100.212C242.576 99.7122 242.745 99.3069 242.995 98.9963C243.245 98.6819 243.548 98.4357 243.904 98.2576C244.264 98.0758 244.65 97.9413 245.063 97.8542C245.48 97.7633 245.895 97.6932 246.307 97.644C246.845 97.5758 247.283 97.5228 247.62 97.4849C247.957 97.447 248.211 97.3845 248.381 97.2974C248.552 97.2103 248.656 97.0607 248.694 96.8485V96.8031C248.785 96.2463 248.711 95.8126 248.472 95.502C248.234 95.1876 247.807 95.0304 247.194 95.0304C246.557 95.0304 246.025 95.1705 245.597 95.4508C245.169 95.7311 244.853 96.0304 244.648 96.3485L243.467 95.894C243.777 95.3637 244.148 94.9508 244.58 94.6554C245.012 94.3561 245.465 94.1478 245.938 94.0304C246.412 93.9092 246.868 93.8485 247.307 93.8485C247.588 93.8485 247.904 93.8826 248.256 93.9508C248.609 94.0152 248.938 94.1497 249.245 94.3542C249.556 94.5588 249.789 94.8675 249.944 95.2804C250.103 95.6932 250.126 96.2463 250.012 96.9395L249.057 102.689H247.717L247.921 101.508H247.853C247.732 101.697 247.546 101.9 247.296 102.116C247.05 102.331 246.737 102.515 246.359 102.667C245.984 102.818 245.542 102.894 245.035 102.894ZM245.421 101.689C245.951 101.689 246.415 101.585 246.813 101.377C247.215 101.169 247.537 100.9 247.779 100.57C248.025 100.241 248.179 99.894 248.239 99.5304L248.444 98.3031C248.376 98.3713 248.241 98.4338 248.04 98.4906C247.84 98.5436 247.612 98.591 247.359 98.6326C247.109 98.6705 246.864 98.7046 246.626 98.7349C246.391 98.7614 246.201 98.7842 246.057 98.8031C245.701 98.8485 245.362 98.9224 245.04 99.0247C244.722 99.1232 244.453 99.2728 244.234 99.4735C244.018 99.6705 243.883 99.9395 243.83 100.28C243.751 100.746 243.862 101.099 244.165 101.337C244.468 101.572 244.887 101.689 245.421 101.689ZM254.778 91.0531L252.846 102.689H251.505L253.437 91.0531H254.778ZM257.847 102.894C257.294 102.894 256.809 102.79 256.393 102.581C255.976 102.369 255.667 102.064 255.467 101.667C255.266 101.265 255.211 100.78 255.302 100.212C255.389 99.7122 255.557 99.3069 255.807 98.9963C256.057 98.6819 256.36 98.4357 256.717 98.2576C257.076 98.0758 257.463 97.9413 257.876 97.8542C258.292 97.7633 258.707 97.6932 259.12 97.644C259.658 97.5758 260.095 97.5228 260.432 97.4849C260.77 97.447 261.023 97.3845 261.194 97.2974C261.364 97.2103 261.468 97.0607 261.506 96.8485V96.8031C261.597 96.2463 261.523 95.8126 261.285 95.502C261.046 95.1876 260.62 95.0304 260.006 95.0304C259.37 95.0304 258.838 95.1705 258.41 95.4508C257.982 95.7311 257.665 96.0304 257.461 96.3485L256.279 95.894C256.59 95.3637 256.961 94.9508 257.393 94.6554C257.824 94.3561 258.277 94.1478 258.751 94.0304C259.224 93.9092 259.681 93.8485 260.12 93.8485C260.4 93.8485 260.717 93.8826 261.069 93.9508C261.421 94.0152 261.751 94.1497 262.057 94.3542C262.368 94.5588 262.601 94.8675 262.756 95.2804C262.915 95.6932 262.938 96.2463 262.824 96.9395L261.87 102.689H260.529L260.734 101.508H260.665C260.544 101.697 260.359 101.9 260.109 102.116C259.862 102.331 259.55 102.515 259.171 102.667C258.796 102.818 258.355 102.894 257.847 102.894ZM258.234 101.689C258.764 101.689 259.228 101.585 259.626 101.377C260.027 101.169 260.349 100.9 260.592 100.57C260.838 100.241 260.991 99.894 261.052 99.5304L261.256 98.3031C261.188 98.3713 261.054 98.4338 260.853 98.4906C260.652 98.5436 260.425 98.591 260.171 98.6326C259.921 98.6705 259.677 98.7046 259.438 98.7349C259.203 98.7614 259.014 98.7842 258.87 98.8031C258.514 98.8485 258.175 98.9224 257.853 99.0247C257.535 99.1232 257.266 99.2728 257.046 99.4735C256.83 99.6705 256.696 99.9395 256.643 100.28C256.563 100.746 256.675 101.099 256.978 101.337C257.281 101.572 257.699 101.689 258.234 101.689ZM264.499 102.689L266.431 91.0531H267.772L267.067 95.3485H267.181C267.302 95.197 267.471 95.0038 267.687 94.769C267.903 94.5304 268.192 94.3182 268.556 94.1326C268.92 93.9432 269.386 93.8485 269.954 93.8485C270.689 93.8485 271.304 94.0323 271.8 94.3997C272.3 94.7671 272.651 95.2879 272.851 95.9622C273.056 96.6364 273.083 97.4319 272.931 98.3485C272.78 99.2728 272.49 100.074 272.062 100.752C271.637 101.426 271.115 101.949 270.494 102.32C269.876 102.688 269.204 102.871 268.476 102.871C267.916 102.871 267.482 102.778 267.175 102.593C266.872 102.403 266.649 102.189 266.505 101.951C266.365 101.708 266.257 101.508 266.181 101.349H266.022L265.795 102.689H264.499ZM266.545 98.3258C266.439 98.9849 266.44 99.5663 266.55 100.07C266.66 100.57 266.878 100.962 267.204 101.246C267.53 101.527 267.961 101.667 268.499 101.667C269.06 101.667 269.552 101.519 269.976 101.224C270.401 100.924 270.749 100.523 271.022 100.019C271.295 99.5114 271.484 98.947 271.59 98.3258C271.689 97.7122 271.685 97.1591 271.579 96.6667C271.476 96.1705 271.261 95.7785 270.931 95.4906C270.605 95.1989 270.158 95.0531 269.59 95.0531C269.045 95.0531 268.562 95.1913 268.141 95.4679C267.725 95.7406 267.38 96.1232 267.107 96.6156C266.838 97.1042 266.651 97.6743 266.545 98.3258ZM277.528 91.0531L275.596 102.689H274.255L276.187 91.0531H277.528ZM281.688 102.871C280.851 102.871 280.16 102.686 279.614 102.314C279.069 101.939 278.688 101.417 278.472 100.746C278.256 100.072 278.222 99.2879 278.37 98.394C278.518 97.5001 278.811 96.7122 279.251 96.0304C279.69 95.3448 280.237 94.8107 280.893 94.4281C281.548 94.0417 282.268 93.8485 283.052 93.8485C283.506 93.8485 283.944 93.9243 284.364 94.0758C284.785 94.2273 285.148 94.4735 285.455 94.8145C285.762 95.1516 285.976 95.5985 286.097 96.1554C286.218 96.7122 286.211 97.3978 286.074 98.2122L285.984 98.7804H279.256L279.438 97.6213H284.802C284.889 97.1288 284.866 96.6895 284.734 96.3031C284.605 95.9167 284.379 95.6118 284.057 95.3883C283.739 95.1648 283.336 95.0531 282.847 95.0531C282.343 95.0531 281.874 95.1895 281.438 95.4622C281.003 95.7311 280.639 96.072 280.347 96.4849C280.056 96.894 279.874 97.3107 279.802 97.7349L279.643 98.7349C279.529 99.4584 279.546 100.034 279.694 100.462C279.845 100.89 280.109 101.199 280.484 101.388C280.859 101.574 281.328 101.667 281.893 101.667C282.253 101.667 282.584 101.617 282.887 101.519C283.19 101.417 283.461 101.265 283.699 101.064C283.938 100.86 284.139 100.606 284.302 100.303L285.529 100.667C285.321 101.106 285.027 101.492 284.648 101.826C284.273 102.155 283.834 102.413 283.33 102.599C282.83 102.78 282.283 102.871 281.688 102.871ZM293.168 92.3031L293.373 91.0531H302.1L301.896 92.3031H298.236L296.509 102.689H295.1L296.827 92.3031H293.168ZM301.255 102.689L302.709 93.9622H304.005L303.778 95.2804H303.869C304.096 94.8485 304.442 94.4982 304.908 94.2292C305.374 93.9603 305.869 93.8258 306.391 93.8258C306.494 93.8258 306.617 93.8277 306.761 93.8315C306.905 93.8315 307.016 93.8372 307.096 93.8485L306.869 95.2122C306.823 95.2008 306.721 95.1838 306.562 95.161C306.403 95.1345 306.232 95.1213 306.05 95.1213C305.626 95.1213 305.234 95.2103 304.874 95.3883C304.514 95.5626 304.213 95.805 303.971 96.1156C303.728 96.4224 303.573 96.7728 303.505 97.1667L302.596 102.689H301.255ZM309.785 102.894C309.232 102.894 308.747 102.79 308.33 102.581C307.914 102.369 307.605 102.064 307.404 101.667C307.203 101.265 307.148 100.78 307.239 100.212C307.326 99.7122 307.495 99.3069 307.745 98.9963C307.995 98.6819 308.298 98.4357 308.654 98.2576C309.014 98.0758 309.4 97.9413 309.813 97.8542C310.23 97.7633 310.645 97.6932 311.057 97.644C311.595 97.5758 312.033 97.5228 312.37 97.4849C312.707 97.447 312.961 97.3845 313.131 97.2974C313.302 97.2103 313.406 97.0607 313.444 96.8485V96.8031C313.535 96.2463 313.461 95.8126 313.222 95.502C312.984 95.1876 312.557 95.0304 311.944 95.0304C311.307 95.0304 310.775 95.1705 310.347 95.4508C309.919 95.7311 309.603 96.0304 309.398 96.3485L308.217 95.894C308.527 95.3637 308.898 94.9508 309.33 94.6554C309.762 94.3561 310.215 94.1478 310.688 94.0304C311.162 93.9092 311.618 93.8485 312.057 93.8485C312.338 93.8485 312.654 93.8826 313.006 93.9508C313.359 94.0152 313.688 94.1497 313.995 94.3542C314.306 94.5588 314.539 94.8675 314.694 95.2804C314.853 95.6932 314.876 96.2463 314.762 96.9395L313.807 102.689H312.467L312.671 101.508H312.603C312.482 101.697 312.296 101.9 312.046 102.116C311.8 102.331 311.487 102.515 311.109 102.667C310.734 102.818 310.292 102.894 309.785 102.894ZM310.171 101.689C310.701 101.689 311.165 101.585 311.563 101.377C311.965 101.169 312.287 100.9 312.529 100.57C312.775 100.241 312.929 99.894 312.989 99.5304L313.194 98.3031C313.126 98.3713 312.991 98.4338 312.79 98.4906C312.59 98.5436 312.362 98.591 312.109 98.6326C311.859 98.6705 311.614 98.7046 311.376 98.7349C311.141 98.7614 310.951 98.7842 310.807 98.8031C310.451 98.8485 310.112 98.9224 309.79 99.0247C309.472 99.1232 309.203 99.2728 308.984 99.4735C308.768 99.6705 308.633 99.9395 308.58 100.28C308.501 100.746 308.612 101.099 308.915 101.337C309.218 101.572 309.637 101.689 310.171 101.689ZM318.459 97.4395L317.596 102.689H316.255L317.709 93.9622H319.005L318.778 95.3258H318.891C319.164 94.8826 319.533 94.5266 319.999 94.2576C320.465 93.9849 321.028 93.8485 321.687 93.8485C322.27 93.8485 322.762 93.9698 323.164 94.2122C323.569 94.4508 323.855 94.8145 324.022 95.3031C324.192 95.7879 324.217 96.4016 324.096 97.144L323.164 102.689H321.823L322.732 97.2349C322.846 96.5531 322.757 96.019 322.465 95.6326C322.177 95.2463 321.721 95.0531 321.096 95.0531C320.664 95.0531 320.264 95.1459 319.897 95.3315C319.533 95.5171 319.225 95.7879 318.971 96.144C318.721 96.5001 318.55 96.9319 318.459 97.4395ZM332.932 95.9167L331.66 96.2576C331.614 96.0531 331.535 95.8561 331.421 95.6667C331.311 95.4735 331.141 95.3163 330.91 95.1951C330.682 95.0701 330.372 95.0076 329.978 95.0076C329.444 95.0076 328.98 95.1307 328.586 95.377C328.192 95.6194 327.967 95.9281 327.91 96.3031C327.853 96.6326 327.929 96.8959 328.137 97.0929C328.345 97.2898 328.694 97.4508 329.182 97.5758L330.432 97.894C331.182 98.0872 331.717 98.377 332.035 98.7633C332.357 99.1459 332.467 99.644 332.364 100.258C332.281 100.758 332.063 101.205 331.711 101.599C331.359 101.992 330.908 102.303 330.359 102.53C329.809 102.758 329.198 102.871 328.523 102.871C327.626 102.871 326.917 102.678 326.398 102.292C325.879 101.902 325.603 101.337 325.569 100.599L326.91 100.28C326.944 100.746 327.11 101.099 327.41 101.337C327.713 101.572 328.137 101.689 328.682 101.689C329.307 101.689 329.828 101.557 330.245 101.292C330.662 101.023 330.898 100.701 330.955 100.326C331.012 100.019 330.951 99.7633 330.773 99.5588C330.599 99.3542 330.296 99.2008 329.864 99.0985L328.478 98.7576C327.705 98.5645 327.164 98.269 326.853 97.8713C326.546 97.4735 326.444 96.9735 326.546 96.3713C326.629 95.8788 326.842 95.4432 327.182 95.0645C327.527 94.6857 327.959 94.3883 328.478 94.1724C329.001 93.9565 329.569 93.8485 330.182 93.8485C331.046 93.8485 331.692 94.0379 332.12 94.4167C332.548 94.7917 332.819 95.2917 332.932 95.9167ZM336.519 102.894C335.966 102.894 335.481 102.79 335.065 102.581C334.648 102.369 334.339 102.064 334.138 101.667C333.938 101.265 333.883 100.78 333.974 100.212C334.061 99.7122 334.229 99.3069 334.479 98.9963C334.729 98.6819 335.032 98.4357 335.388 98.2576C335.748 98.0758 336.135 97.9413 336.547 97.8542C336.964 97.7633 337.379 97.6932 337.792 97.644C338.33 97.5758 338.767 97.5228 339.104 97.4849C339.441 97.447 339.695 97.3845 339.866 97.2974C340.036 97.2103 340.14 97.0607 340.178 96.8485V96.8031C340.269 96.2463 340.195 95.8126 339.957 95.502C339.718 95.1876 339.292 95.0304 338.678 95.0304C338.042 95.0304 337.51 95.1705 337.082 95.4508C336.654 95.7311 336.337 96.0304 336.133 96.3485L334.951 95.894C335.262 95.3637 335.633 94.9508 336.065 94.6554C336.496 94.3561 336.949 94.1478 337.422 94.0304C337.896 93.9092 338.352 93.8485 338.792 93.8485C339.072 93.8485 339.388 93.8826 339.741 93.9508C340.093 94.0152 340.422 94.1497 340.729 94.3542C341.04 94.5588 341.273 94.8675 341.428 95.2804C341.587 95.6932 341.61 96.2463 341.496 96.9395L340.542 102.689H339.201L339.405 101.508H339.337C339.216 101.697 339.03 101.9 338.78 102.116C338.534 102.331 338.222 102.515 337.843 102.667C337.468 102.818 337.027 102.894 336.519 102.894ZM336.905 101.689C337.436 101.689 337.9 101.585 338.297 101.377C338.699 101.169 339.021 100.9 339.263 100.57C339.51 100.241 339.663 99.894 339.724 99.5304L339.928 98.3031C339.86 98.3713 339.726 98.4338 339.525 98.4906C339.324 98.5436 339.097 98.591 338.843 98.6326C338.593 98.6705 338.349 98.7046 338.11 98.7349C337.875 98.7614 337.686 98.7842 337.542 98.8031C337.186 98.8485 336.847 98.9224 336.525 99.0247C336.207 99.1232 335.938 99.2728 335.718 99.4735C335.502 99.6705 335.368 99.9395 335.315 100.28C335.235 100.746 335.347 101.099 335.65 101.337C335.953 101.572 336.371 101.689 336.905 101.689ZM346.512 102.871C345.69 102.871 345.016 102.678 344.489 102.292C343.967 101.905 343.603 101.373 343.398 100.695C343.194 100.017 343.164 99.2425 343.307 98.3713C343.451 97.4849 343.743 96.7027 344.182 96.0247C344.622 95.3429 345.169 94.8107 345.824 94.4281C346.48 94.0417 347.201 93.8485 347.989 93.8485C348.603 93.8485 349.137 93.9622 349.592 94.1895C350.046 94.4167 350.396 94.7349 350.643 95.144C350.889 95.5531 351.004 96.0304 350.989 96.5758H349.648C349.61 96.1781 349.44 95.8258 349.137 95.519C348.838 95.2084 348.395 95.0531 347.807 95.0531C347.285 95.0531 346.804 95.1895 346.364 95.4622C345.925 95.7311 345.556 96.1118 345.256 96.6042C344.957 97.0929 344.754 97.6667 344.648 98.3258C344.535 99.0001 344.544 99.5872 344.677 100.087C344.809 100.587 345.05 100.975 345.398 101.252C345.747 101.528 346.186 101.667 346.717 101.667C347.065 101.667 347.391 101.606 347.694 101.485C347.997 101.364 348.266 101.189 348.501 100.962C348.735 100.735 348.921 100.462 349.057 100.144H350.398C350.232 100.659 349.965 101.123 349.597 101.536C349.23 101.945 348.785 102.271 348.262 102.513C347.739 102.752 347.156 102.871 346.512 102.871ZM357.177 93.9622L356.995 95.0985H352.472L352.654 93.9622H357.177ZM354.313 91.8713H355.654L354.268 100.189C354.207 100.568 354.217 100.852 354.296 101.042C354.379 101.227 354.504 101.352 354.671 101.417C354.842 101.477 355.025 101.508 355.222 101.508C355.37 101.508 355.491 101.5 355.586 101.485C355.681 101.466 355.756 101.451 355.813 101.439L355.904 102.644C355.802 102.678 355.664 102.712 355.489 102.746C355.319 102.784 355.109 102.803 354.859 102.803C354.48 102.803 354.124 102.722 353.79 102.559C353.457 102.396 353.201 102.148 353.023 101.814C352.845 101.481 352.798 101.061 352.881 100.553L354.313 91.8713ZM357.739 102.689L359.194 93.9622H360.535L359.08 102.689H357.739ZM360.273 92.4849C360.012 92.4849 359.787 92.3959 359.597 92.2179C359.412 92.0398 359.319 91.8258 359.319 91.5758C359.319 91.3258 359.412 91.1118 359.597 90.9338C359.787 90.7557 360.012 90.6667 360.273 90.6667C360.535 90.6667 360.758 90.7557 360.944 90.9338C361.133 91.1118 361.228 91.3258 361.228 91.5758C361.228 91.8258 361.133 92.0398 360.944 92.2179C360.758 92.3959 360.535 92.4849 360.273 92.4849ZM365.138 102.871C364.335 102.871 363.663 102.68 363.121 102.297C362.58 101.915 362.197 101.379 361.974 100.689C361.754 100 361.718 99.197 361.866 98.2804C362.01 97.3864 362.296 96.608 362.724 95.9451C363.155 95.2785 363.691 94.7633 364.332 94.3997C364.976 94.0323 365.684 93.8485 366.457 93.8485C367.26 93.8485 367.93 94.0417 368.468 94.4281C369.01 94.8107 369.392 95.3485 369.616 96.0417C369.839 96.7311 369.877 97.5379 369.729 98.4622C369.585 99.3485 369.296 100.123 368.86 100.786C368.428 101.445 367.892 101.958 367.252 102.326C366.616 102.689 365.911 102.871 365.138 102.871ZM365.161 101.667C365.775 101.667 366.307 101.51 366.758 101.195C367.212 100.881 367.58 100.466 367.86 99.9508C368.144 99.4357 368.335 98.8788 368.434 98.2804C368.525 97.7122 368.521 97.1838 368.422 96.6951C368.324 96.2027 368.114 95.8069 367.792 95.5076C367.47 95.2046 367.017 95.0531 366.434 95.0531C365.82 95.0531 365.284 95.2122 364.826 95.5304C364.371 95.8485 364.004 96.2671 363.724 96.786C363.443 97.305 363.256 97.8637 363.161 98.4622C363.07 99.0304 363.072 99.5588 363.167 100.047C363.265 100.532 363.476 100.924 363.797 101.224C364.123 101.519 364.578 101.667 365.161 101.667ZM373.288 97.4395L372.424 102.689H371.083L372.538 93.9622H373.833L373.606 95.3258H373.719C373.992 94.8826 374.361 94.5266 374.827 94.2576C375.293 93.9849 375.856 93.8485 376.515 93.8485C377.098 93.8485 377.591 93.9698 377.992 94.2122C378.397 94.4508 378.683 94.8145 378.85 95.3031C379.021 95.7879 379.045 96.4016 378.924 97.144L377.992 102.689H376.651L377.56 97.2349C377.674 96.5531 377.585 96.019 377.293 95.6326C377.005 95.2463 376.549 95.0531 375.924 95.0531C375.492 95.0531 375.092 95.1459 374.725 95.3315C374.361 95.5171 374.053 95.7879 373.799 96.144C373.549 96.5001 373.378 96.9319 373.288 97.4395ZM392.92 94.0531C392.92 93.4281 392.713 92.9546 392.3 92.6326C391.887 92.3069 391.329 92.144 390.624 92.144C390.109 92.144 389.645 92.2273 389.232 92.394C388.819 92.5607 388.482 92.7898 388.221 93.0815C387.959 93.3732 387.798 93.7046 387.738 94.0758C387.689 94.3864 387.721 94.6535 387.834 94.877C387.948 95.0966 388.109 95.2804 388.317 95.4281C388.53 95.572 388.757 95.6913 388.999 95.786C389.242 95.877 389.465 95.9508 389.67 96.0076L390.806 96.3258C391.09 96.4054 391.406 96.5152 391.755 96.6554C392.103 96.7955 392.429 96.9868 392.732 97.2292C393.035 97.4679 393.266 97.7747 393.425 98.1497C393.588 98.5247 393.624 98.9849 393.533 99.5304C393.427 100.159 393.168 100.727 392.755 101.235C392.346 101.742 391.804 102.146 391.13 102.445C390.459 102.744 389.677 102.894 388.783 102.894C387.95 102.894 387.249 102.76 386.681 102.491C386.117 102.222 385.7 101.847 385.431 101.366C385.166 100.885 385.064 100.326 385.124 99.6895H386.579C386.541 100.129 386.628 100.492 386.84 100.78C387.052 101.064 387.348 101.277 387.726 101.417C388.105 101.553 388.526 101.621 388.988 101.621C389.526 101.621 390.022 101.534 390.476 101.36C390.935 101.182 391.314 100.936 391.613 100.621C391.916 100.303 392.101 99.9319 392.17 99.5076C392.238 99.1213 392.185 98.8069 392.011 98.5645C391.836 98.322 391.584 98.1251 391.255 97.9735C390.925 97.822 390.564 97.6895 390.17 97.5758L388.806 97.1667C387.942 96.9054 387.285 96.5323 386.834 96.0474C386.387 95.5626 386.226 94.9281 386.351 94.144C386.465 93.4925 386.74 92.9243 387.175 92.4395C387.611 91.9508 388.151 91.572 388.795 91.3031C389.439 91.0304 390.132 90.894 390.874 90.894C391.624 90.894 392.266 91.0304 392.8 91.3031C393.334 91.572 393.732 91.9451 393.994 92.4224C394.255 92.8959 394.351 93.4395 394.283 94.0531H392.92ZM394.6 105.962L396.611 93.9622H397.907L397.68 95.3485H397.839C397.96 95.197 398.127 95.0038 398.339 94.769C398.555 94.5304 398.844 94.3182 399.208 94.1326C399.575 93.9432 400.043 93.8485 400.611 93.8485C401.346 93.8485 401.962 94.0323 402.458 94.3997C402.954 94.7671 403.305 95.2879 403.509 95.9622C403.714 96.6364 403.74 97.4319 403.589 98.3485C403.437 99.2728 403.147 100.074 402.719 100.752C402.291 101.426 401.769 101.949 401.151 102.32C400.534 102.688 399.861 102.871 399.134 102.871C398.574 102.871 398.14 102.778 397.833 102.593C397.526 102.403 397.303 102.189 397.163 101.951C397.022 101.708 396.914 101.508 396.839 101.349H396.725L395.952 105.962H394.6ZM397.202 98.3258C397.096 98.9849 397.096 99.5663 397.202 100.07C397.312 100.57 397.53 100.962 397.856 101.246C398.185 101.527 398.619 101.667 399.157 101.667C399.717 101.667 400.208 101.519 400.628 101.224C401.053 100.924 401.401 100.523 401.674 100.019C401.95 99.5114 402.142 98.947 402.248 98.3258C402.346 97.7122 402.342 97.1591 402.236 96.6667C402.13 96.1705 401.914 95.7785 401.589 95.4906C401.263 95.1989 400.816 95.0531 400.248 95.0531C399.702 95.0531 399.219 95.1913 398.799 95.4679C398.382 95.7406 398.038 96.1232 397.765 96.6156C397.496 97.1042 397.308 97.6743 397.202 98.3258ZM408.513 102.871C407.71 102.871 407.038 102.68 406.496 102.297C405.955 101.915 405.572 101.379 405.349 100.689C405.129 100 405.093 99.197 405.241 98.2804C405.385 97.3864 405.671 96.608 406.099 95.9451C406.53 95.2785 407.066 94.7633 407.707 94.3997C408.351 94.0323 409.059 93.8485 409.832 93.8485C410.635 93.8485 411.305 94.0417 411.843 94.4281C412.385 94.8107 412.767 95.3485 412.991 96.0417C413.214 96.7311 413.252 97.5379 413.104 98.4622C412.96 99.3485 412.671 100.123 412.235 100.786C411.803 101.445 411.267 101.958 410.627 102.326C409.991 102.689 409.286 102.871 408.513 102.871ZM408.536 101.667C409.15 101.667 409.682 101.51 410.133 101.195C410.587 100.881 410.955 100.466 411.235 99.9508C411.519 99.4357 411.71 98.8788 411.809 98.2804C411.9 97.7122 411.896 97.1838 411.797 96.6951C411.699 96.2027 411.489 95.8069 411.167 95.5076C410.845 95.2046 410.392 95.0531 409.809 95.0531C409.195 95.0531 408.659 95.2122 408.201 95.5304C407.746 95.8485 407.379 96.2671 407.099 96.786C406.818 97.305 406.631 97.8637 406.536 98.4622C406.445 99.0304 406.447 99.5588 406.542 100.047C406.64 100.532 406.851 100.924 407.172 101.224C407.498 101.519 407.953 101.667 408.536 101.667ZM416.663 97.4395L415.799 102.689H414.458L415.913 93.9622H417.208L416.981 95.3258H417.094C417.367 94.8826 417.736 94.5266 418.202 94.2576C418.668 93.9849 419.231 93.8485 419.89 93.8485C420.473 93.8485 420.966 93.9698 421.367 94.2122C421.772 94.4508 422.058 94.8145 422.225 95.3031C422.396 95.7879 422.42 96.4016 422.299 97.144L421.367 102.689H420.026L420.935 97.2349C421.049 96.5531 420.96 96.019 420.668 95.6326C420.38 95.2463 419.924 95.0531 419.299 95.0531C418.867 95.0531 418.467 95.1459 418.1 95.3315C417.736 95.5171 417.428 95.7879 417.174 96.144C416.924 96.5001 416.753 96.9319 416.663 97.4395ZM431.136 95.9167L429.863 96.2576C429.817 96.0531 429.738 95.8561 429.624 95.6667C429.514 95.4735 429.344 95.3163 429.113 95.1951C428.886 95.0701 428.575 95.0076 428.181 95.0076C427.647 95.0076 427.183 95.1307 426.789 95.377C426.395 95.6194 426.17 95.9281 426.113 96.3031C426.056 96.6326 426.132 96.8959 426.34 97.0929C426.548 97.2898 426.897 97.4508 427.386 97.5758L428.636 97.894C429.386 98.0872 429.92 98.377 430.238 98.7633C430.56 99.1459 430.67 99.644 430.567 100.258C430.484 100.758 430.266 101.205 429.914 101.599C429.562 101.992 429.111 102.303 428.562 102.53C428.012 102.758 427.401 102.871 426.726 102.871C425.829 102.871 425.12 102.678 424.601 102.292C424.083 101.902 423.806 101.337 423.772 100.599L425.113 100.28C425.147 100.746 425.314 101.099 425.613 101.337C425.916 101.572 426.34 101.689 426.886 101.689C427.511 101.689 428.031 101.557 428.448 101.292C428.865 101.023 429.101 100.701 429.158 100.326C429.215 100.019 429.155 99.7633 428.976 99.5588C428.802 99.3542 428.499 99.2008 428.067 99.0985L426.681 98.7576C425.908 98.5645 425.367 98.269 425.056 97.8713C424.749 97.4735 424.647 96.9735 424.749 96.3713C424.833 95.8788 425.045 95.4432 425.386 95.0645C425.73 94.6857 426.162 94.3883 426.681 94.1724C427.204 93.9565 427.772 93.8485 428.386 93.8485C429.249 93.8485 429.895 94.0379 430.323 94.4167C430.751 94.7917 431.022 95.2917 431.136 95.9167ZM435.779 102.871C434.976 102.871 434.304 102.68 433.762 102.297C433.22 101.915 432.838 101.379 432.614 100.689C432.395 100 432.359 99.197 432.506 98.2804C432.65 97.3864 432.936 96.608 433.364 95.9451C433.796 95.2785 434.332 94.7633 434.972 94.3997C435.616 94.0323 436.324 93.8485 437.097 93.8485C437.9 93.8485 438.571 94.0417 439.109 94.4281C439.65 94.8107 440.033 95.3485 440.256 96.0417C440.48 96.7311 440.518 97.5379 440.37 98.4622C440.226 99.3485 439.936 100.123 439.501 100.786C439.069 101.445 438.533 101.958 437.893 102.326C437.256 102.689 436.552 102.871 435.779 102.871ZM435.802 101.667C436.415 101.667 436.948 101.51 437.398 101.195C437.853 100.881 438.22 100.466 438.501 99.9508C438.785 99.4357 438.976 98.8788 439.074 98.2804C439.165 97.7122 439.162 97.1838 439.063 96.6951C438.965 96.2027 438.754 95.8069 438.432 95.5076C438.11 95.2046 437.658 95.0531 437.074 95.0531C436.461 95.0531 435.925 95.2122 435.467 95.5304C435.012 95.8485 434.645 96.2671 434.364 96.786C434.084 97.305 433.896 97.8637 433.802 98.4622C433.711 99.0304 433.713 99.5588 433.807 100.047C433.906 100.532 434.116 100.924 434.438 101.224C434.764 101.519 435.218 101.667 435.802 101.667ZM441.724 102.689L443.178 93.9622H444.474L444.246 95.2804H444.337C444.565 94.8485 444.911 94.4982 445.377 94.2292C445.843 93.9603 446.337 93.8258 446.86 93.8258C446.962 93.8258 447.085 93.8277 447.229 93.8315C447.373 93.8315 447.485 93.8372 447.565 93.8485L447.337 95.2122C447.292 95.2008 447.19 95.1838 447.03 95.161C446.871 95.1345 446.701 95.1213 446.519 95.1213C446.095 95.1213 445.703 95.2103 445.343 95.3883C444.983 95.5626 444.682 95.805 444.44 96.1156C444.197 96.4224 444.042 96.7728 443.974 97.1667L443.065 102.689H441.724ZM455.026 95.9167L453.753 96.2576C453.708 96.0531 453.628 95.8561 453.515 95.6667C453.405 95.4735 453.235 95.3163 453.003 95.1951C452.776 95.0701 452.466 95.0076 452.072 95.0076C451.538 95.0076 451.074 95.1307 450.68 95.377C450.286 95.6194 450.06 95.9281 450.003 96.3031C449.947 96.6326 450.022 96.8959 450.231 97.0929C450.439 97.2898 450.788 97.4508 451.276 97.5758L452.526 97.894C453.276 98.0872 453.81 98.377 454.128 98.7633C454.45 99.1459 454.56 99.644 454.458 100.258C454.375 100.758 454.157 101.205 453.805 101.599C453.452 101.992 453.002 102.303 452.452 102.53C451.903 102.758 451.291 102.871 450.617 102.871C449.719 102.871 449.011 102.678 448.492 102.292C447.973 101.902 447.697 101.337 447.663 100.599L449.003 100.28C449.038 100.746 449.204 101.099 449.503 101.337C449.806 101.572 450.231 101.689 450.776 101.689C451.401 101.689 451.922 101.557 452.339 101.292C452.755 101.023 452.992 100.701 453.049 100.326C453.106 100.019 453.045 99.7633 452.867 99.5588C452.693 99.3542 452.39 99.2008 451.958 99.0985L450.572 98.7576C449.799 98.5645 449.257 98.269 448.947 97.8713C448.64 97.4735 448.538 96.9735 448.64 96.3713C448.723 95.8788 448.935 95.4432 449.276 95.0645C449.621 94.6857 450.053 94.3883 450.572 94.1724C451.094 93.9565 451.663 93.8485 452.276 93.8485C453.14 93.8485 453.786 94.0379 454.214 94.4167C454.642 94.7917 454.913 95.2917 455.026 95.9167ZM458.272 97.4395L457.408 102.689H456.067L457.999 91.0531H459.34L458.636 95.3258H458.749C459.022 94.8713 459.386 94.5114 459.84 94.2463C460.298 93.9811 460.874 93.8485 461.567 93.8485C462.158 93.8485 462.656 93.9679 463.062 94.2065C463.471 94.4413 463.759 94.8031 463.925 95.2917C464.096 95.7766 464.12 96.394 463.999 97.144L463.067 102.689H461.726L462.636 97.2349C462.749 96.5417 462.656 96.0057 462.357 95.627C462.062 95.2444 461.601 95.0531 460.976 95.0531C460.537 95.0531 460.128 95.1459 459.749 95.3315C459.374 95.5171 459.056 95.7879 458.795 96.144C458.537 96.5001 458.363 96.9319 458.272 97.4395ZM465.521 102.689L466.975 93.9622H468.316L466.861 102.689H465.521ZM468.055 92.4849C467.793 92.4849 467.568 92.3959 467.378 92.2179C467.193 92.0398 467.1 91.8258 467.1 91.5758C467.1 91.3258 467.193 91.1118 467.378 90.9338C467.568 90.7557 467.793 90.6667 468.055 90.6667C468.316 90.6667 468.539 90.7557 468.725 90.9338C468.914 91.1118 469.009 91.3258 469.009 91.5758C469.009 91.8258 468.914 92.0398 468.725 92.2179C468.539 92.3959 468.316 92.4849 468.055 92.4849ZM468.772 105.962L470.783 93.9622H472.079L471.851 95.3485H472.011C472.132 95.197 472.298 95.0038 472.511 94.769C472.726 94.5304 473.016 94.3182 473.38 94.1326C473.747 93.9432 474.215 93.8485 474.783 93.8485C475.518 93.8485 476.134 94.0323 476.63 94.3997C477.126 94.7671 477.476 95.2879 477.681 95.9622C477.886 96.6364 477.912 97.4319 477.761 98.3485C477.609 99.2728 477.319 100.074 476.891 100.752C476.463 101.426 475.94 101.949 475.323 102.32C474.706 102.688 474.033 102.871 473.306 102.871C472.745 102.871 472.312 102.778 472.005 102.593C471.698 102.403 471.475 102.189 471.334 101.951C471.194 101.708 471.086 101.508 471.011 101.349H470.897L470.124 105.962H468.772ZM471.374 98.3258C471.268 98.9849 471.268 99.5663 471.374 100.07C471.484 100.57 471.702 100.962 472.028 101.246C472.357 101.527 472.791 101.667 473.329 101.667C473.889 101.667 474.38 101.519 474.8 101.224C475.225 100.924 475.573 100.523 475.846 100.019C476.122 99.5114 476.314 98.947 476.42 98.3258C476.518 97.7122 476.514 97.1591 476.408 96.6667C476.302 96.1705 476.086 95.7785 475.761 95.4906C475.435 95.1989 474.988 95.0531 474.42 95.0531C473.874 95.0531 473.391 95.1913 472.971 95.4679C472.554 95.7406 472.209 96.1232 471.937 96.6156C471.668 97.1042 471.48 97.6743 471.374 98.3258ZM228.69 112.962L228.508 114.099H223.803L223.985 112.962H228.69ZM223.94 121.689L225.599 111.758C225.674 111.258 225.856 110.841 226.144 110.508C226.436 110.174 226.782 109.924 227.184 109.758C227.589 109.591 228 109.508 228.417 109.508C228.746 109.508 229.01 109.534 229.207 109.587C229.407 109.64 229.553 109.689 229.644 109.735L229.076 110.894C229.008 110.871 228.917 110.843 228.803 110.809C228.693 110.775 228.542 110.758 228.349 110.758C227.905 110.758 227.568 110.869 227.337 111.093C227.106 111.316 226.951 111.644 226.871 112.076L225.28 121.689H223.94ZM232.357 121.871C231.554 121.871 230.882 121.68 230.34 121.297C229.798 120.915 229.416 120.379 229.192 119.689C228.973 119 228.937 118.197 229.084 117.28C229.228 116.386 229.514 115.608 229.942 114.945C230.374 114.278 230.91 113.763 231.55 113.4C232.194 113.032 232.903 112.849 233.675 112.849C234.478 112.849 235.149 113.042 235.687 113.428C236.228 113.811 236.611 114.349 236.834 115.042C237.058 115.731 237.096 116.538 236.948 117.462C236.804 118.349 236.514 119.123 236.079 119.786C235.647 120.445 235.111 120.958 234.471 121.326C233.834 121.689 233.13 121.871 232.357 121.871ZM232.38 120.667C232.994 120.667 233.526 120.51 233.976 120.195C234.431 119.881 234.798 119.466 235.079 118.951C235.363 118.436 235.554 117.879 235.653 117.28C235.744 116.712 235.74 116.184 235.641 115.695C235.543 115.203 235.333 114.807 235.011 114.508C234.689 114.205 234.236 114.053 233.653 114.053C233.039 114.053 232.503 114.212 232.045 114.53C231.59 114.849 231.223 115.267 230.942 115.786C230.662 116.305 230.475 116.864 230.38 117.462C230.289 118.03 230.291 118.559 230.386 119.047C230.484 119.532 230.694 119.924 231.016 120.224C231.342 120.519 231.797 120.667 232.38 120.667ZM238.302 121.689L239.756 112.962H241.052L240.824 114.28H240.915C241.143 113.849 241.489 113.498 241.955 113.229C242.421 112.96 242.915 112.826 243.438 112.826C243.54 112.826 243.664 112.828 243.807 112.831C243.951 112.831 244.063 112.837 244.143 112.849L243.915 114.212C243.87 114.201 243.768 114.184 243.609 114.161C243.449 114.135 243.279 114.121 243.097 114.121C242.673 114.121 242.281 114.21 241.921 114.388C241.561 114.563 241.26 114.805 241.018 115.116C240.775 115.422 240.62 115.773 240.552 116.167L239.643 121.689H238.302ZM256.763 113.053C256.763 112.428 256.557 111.955 256.144 111.633C255.731 111.307 255.172 111.144 254.468 111.144C253.953 111.144 253.489 111.227 253.076 111.394C252.663 111.561 252.326 111.79 252.065 112.081C251.803 112.373 251.642 112.705 251.582 113.076C251.532 113.386 251.565 113.653 251.678 113.877C251.792 114.097 251.953 114.28 252.161 114.428C252.373 114.572 252.601 114.691 252.843 114.786C253.085 114.877 253.309 114.951 253.513 115.008L254.65 115.326C254.934 115.405 255.25 115.515 255.599 115.655C255.947 115.796 256.273 115.987 256.576 116.229C256.879 116.468 257.11 116.775 257.269 117.15C257.432 117.525 257.468 117.985 257.377 118.53C257.271 119.159 257.012 119.727 256.599 120.235C256.19 120.742 255.648 121.146 254.974 121.445C254.303 121.744 253.521 121.894 252.627 121.894C251.794 121.894 251.093 121.76 250.525 121.491C249.96 121.222 249.544 120.847 249.275 120.366C249.01 119.885 248.907 119.326 248.968 118.689H250.422C250.385 119.129 250.472 119.492 250.684 119.78C250.896 120.064 251.191 120.277 251.57 120.417C251.949 120.553 252.369 120.621 252.832 120.621C253.369 120.621 253.866 120.534 254.32 120.36C254.779 120.182 255.157 119.936 255.457 119.621C255.76 119.303 255.945 118.932 256.013 118.508C256.082 118.121 256.029 117.807 255.854 117.564C255.68 117.322 255.428 117.125 255.099 116.974C254.769 116.822 254.407 116.689 254.013 116.576L252.65 116.167C251.786 115.905 251.129 115.532 250.678 115.047C250.231 114.563 250.07 113.928 250.195 113.144C250.309 112.492 250.583 111.924 251.019 111.439C251.455 110.951 251.994 110.572 252.638 110.303C253.282 110.03 253.976 109.894 254.718 109.894C255.468 109.894 256.11 110.03 256.644 110.303C257.178 110.572 257.576 110.945 257.837 111.422C258.099 111.896 258.195 112.439 258.127 113.053H256.763ZM262.626 121.871C261.789 121.871 261.097 121.686 260.552 121.314C260.006 120.939 259.626 120.417 259.41 119.746C259.194 119.072 259.16 118.288 259.307 117.394C259.455 116.5 259.749 115.712 260.188 115.03C260.628 114.345 261.175 113.811 261.83 113.428C262.485 113.042 263.205 112.849 263.989 112.849C264.444 112.849 264.881 112.924 265.302 113.076C265.722 113.227 266.086 113.474 266.393 113.814C266.699 114.152 266.914 114.599 267.035 115.155C267.156 115.712 267.148 116.398 267.012 117.212L266.921 117.78H260.194L260.376 116.621H265.739C265.826 116.129 265.804 115.689 265.671 115.303C265.542 114.917 265.317 114.612 264.995 114.388C264.677 114.165 264.273 114.053 263.785 114.053C263.281 114.053 262.811 114.189 262.376 114.462C261.94 114.731 261.576 115.072 261.285 115.485C260.993 115.894 260.811 116.311 260.739 116.735L260.58 117.735C260.467 118.458 260.484 119.034 260.631 119.462C260.783 119.89 261.046 120.199 261.421 120.388C261.796 120.574 262.266 120.667 262.83 120.667C263.19 120.667 263.521 120.617 263.824 120.519C264.128 120.417 264.398 120.265 264.637 120.064C264.876 119.86 265.076 119.606 265.239 119.303L266.467 119.667C266.258 120.106 265.965 120.492 265.586 120.826C265.211 121.155 264.771 121.413 264.268 121.599C263.768 121.78 263.22 121.871 262.626 121.871ZM270.878 121.894C270.325 121.894 269.841 121.79 269.424 121.581C269.007 121.369 268.699 121.064 268.498 120.667C268.297 120.265 268.242 119.78 268.333 119.212C268.42 118.712 268.589 118.307 268.839 117.996C269.089 117.682 269.392 117.436 269.748 117.258C270.108 117.076 270.494 116.941 270.907 116.854C271.324 116.763 271.738 116.693 272.151 116.644C272.689 116.576 273.127 116.523 273.464 116.485C273.801 116.447 274.055 116.385 274.225 116.297C274.396 116.21 274.5 116.061 274.538 115.849V115.803C274.628 115.246 274.555 114.813 274.316 114.502C274.077 114.188 273.651 114.03 273.038 114.03C272.401 114.03 271.869 114.171 271.441 114.451C271.013 114.731 270.697 115.03 270.492 115.349L269.31 114.894C269.621 114.364 269.992 113.951 270.424 113.655C270.856 113.356 271.308 113.148 271.782 113.03C272.255 112.909 272.712 112.849 273.151 112.849C273.431 112.849 273.748 112.883 274.1 112.951C274.452 113.015 274.782 113.15 275.089 113.354C275.399 113.559 275.632 113.867 275.788 114.28C275.947 114.693 275.969 115.246 275.856 115.939L274.901 121.689H273.56L273.765 120.508H273.697C273.575 120.697 273.39 120.9 273.14 121.116C272.894 121.331 272.581 121.515 272.202 121.667C271.827 121.818 271.386 121.894 270.878 121.894ZM271.265 120.689C271.795 120.689 272.259 120.585 272.657 120.377C273.058 120.169 273.38 119.9 273.623 119.57C273.869 119.241 274.022 118.894 274.083 118.53L274.288 117.303C274.219 117.371 274.085 117.434 273.884 117.491C273.683 117.544 273.456 117.591 273.202 117.633C272.952 117.671 272.708 117.705 272.469 117.735C272.235 117.761 272.045 117.784 271.901 117.803C271.545 117.849 271.206 117.922 270.884 118.025C270.566 118.123 270.297 118.273 270.077 118.474C269.861 118.671 269.727 118.939 269.674 119.28C269.594 119.746 269.706 120.099 270.009 120.337C270.312 120.572 270.731 120.689 271.265 120.689ZM277.349 121.689L278.803 112.962H280.099L279.871 114.326H279.985C280.246 113.86 280.601 113.498 281.047 113.241C281.498 112.979 282.008 112.849 282.576 112.849C283.144 112.849 283.601 112.979 283.945 113.241C284.29 113.498 284.53 113.86 284.667 114.326H284.758C285.053 113.871 285.447 113.511 285.94 113.246C286.436 112.981 286.996 112.849 287.621 112.849C288.394 112.849 288.989 113.093 289.405 113.581C289.826 114.07 289.951 114.826 289.78 115.849L288.803 121.689H287.462L288.44 115.849C288.542 115.201 288.44 114.741 288.133 114.468C287.83 114.191 287.44 114.053 286.962 114.053C286.349 114.053 285.843 114.237 285.445 114.604C285.047 114.972 284.803 115.439 284.712 116.008L283.758 121.689H282.394L283.394 115.712C283.474 115.212 283.379 114.811 283.11 114.508C282.841 114.205 282.451 114.053 281.94 114.053C281.591 114.053 281.25 114.148 280.917 114.337C280.583 114.523 280.297 114.78 280.059 115.11C279.82 115.436 279.667 115.811 279.599 116.235L278.69 121.689H277.349ZM294.528 110.053L292.596 121.689H291.255L293.187 110.053H294.528ZM298.688 121.871C297.851 121.871 297.16 121.686 296.614 121.314C296.069 120.939 295.688 120.417 295.472 119.746C295.256 119.072 295.222 118.288 295.37 117.394C295.518 116.5 295.811 115.712 296.251 115.03C296.69 114.345 297.237 113.811 297.893 113.428C298.548 113.042 299.268 112.849 300.052 112.849C300.506 112.849 300.944 112.924 301.364 113.076C301.785 113.227 302.148 113.474 302.455 113.814C302.762 114.152 302.976 114.599 303.097 115.155C303.218 115.712 303.211 116.398 303.074 117.212L302.984 117.78H296.256L296.438 116.621H301.802C301.889 116.129 301.866 115.689 301.734 115.303C301.605 114.917 301.379 114.612 301.057 114.388C300.739 114.165 300.336 114.053 299.847 114.053C299.343 114.053 298.874 114.189 298.438 114.462C298.003 114.731 297.639 115.072 297.347 115.485C297.056 115.894 296.874 116.311 296.802 116.735L296.643 117.735C296.529 118.458 296.546 119.034 296.694 119.462C296.845 119.89 297.109 120.199 297.484 120.388C297.859 120.574 298.328 120.667 298.893 120.667C299.253 120.667 299.584 120.617 299.887 120.519C300.19 120.417 300.461 120.265 300.699 120.064C300.938 119.86 301.139 119.606 301.302 119.303L302.529 119.667C302.321 120.106 302.027 120.492 301.648 120.826C301.273 121.155 300.834 121.413 300.33 121.599C299.83 121.78 299.283 121.871 298.688 121.871ZM311.714 114.917L310.441 115.258C310.396 115.053 310.316 114.856 310.202 114.667C310.092 114.474 309.922 114.316 309.691 114.195C309.464 114.07 309.153 114.008 308.759 114.008C308.225 114.008 307.761 114.131 307.367 114.377C306.973 114.619 306.748 114.928 306.691 115.303C306.634 115.633 306.71 115.896 306.918 116.093C307.127 116.29 307.475 116.451 307.964 116.576L309.214 116.894C309.964 117.087 310.498 117.377 310.816 117.763C311.138 118.146 311.248 118.644 311.146 119.258C311.062 119.758 310.844 120.205 310.492 120.599C310.14 120.992 309.689 121.303 309.14 121.53C308.591 121.758 307.979 121.871 307.305 121.871C306.407 121.871 305.699 121.678 305.18 121.292C304.661 120.902 304.384 120.337 304.35 119.599L305.691 119.28C305.725 119.746 305.892 120.099 306.191 120.337C306.494 120.572 306.918 120.689 307.464 120.689C308.089 120.689 308.61 120.557 309.026 120.292C309.443 120.023 309.68 119.701 309.736 119.326C309.793 119.019 309.733 118.763 309.555 118.559C309.38 118.354 309.077 118.201 308.646 118.099L307.259 117.758C306.486 117.564 305.945 117.269 305.634 116.871C305.327 116.474 305.225 115.974 305.327 115.371C305.411 114.879 305.623 114.443 305.964 114.064C306.308 113.686 306.74 113.388 307.259 113.172C307.782 112.956 308.35 112.849 308.964 112.849C309.827 112.849 310.473 113.038 310.901 113.417C311.329 113.792 311.6 114.292 311.714 114.917ZM320.073 114.917L318.8 115.258C318.755 115.053 318.675 114.856 318.562 114.667C318.452 114.474 318.281 114.316 318.05 114.195C317.823 114.07 317.512 114.008 317.119 114.008C316.584 114.008 316.12 114.131 315.726 114.377C315.333 114.619 315.107 114.928 315.05 115.303C314.994 115.633 315.069 115.896 315.278 116.093C315.486 116.29 315.834 116.451 316.323 116.576L317.573 116.894C318.323 117.087 318.857 117.377 319.175 117.763C319.497 118.146 319.607 118.644 319.505 119.258C319.422 119.758 319.204 120.205 318.851 120.599C318.499 120.992 318.048 121.303 317.499 121.53C316.95 121.758 316.338 121.871 315.664 121.871C314.766 121.871 314.058 121.678 313.539 121.292C313.02 120.902 312.744 120.337 312.709 119.599L314.05 119.28C314.084 119.746 314.251 120.099 314.55 120.337C314.853 120.572 315.278 120.689 315.823 120.689C316.448 120.689 316.969 120.557 317.386 120.292C317.802 120.023 318.039 119.701 318.096 119.326C318.153 119.019 318.092 118.763 317.914 118.559C317.74 118.354 317.437 118.201 317.005 118.099L315.619 117.758C314.846 117.564 314.304 117.269 313.994 116.871C313.687 116.474 313.584 115.974 313.687 115.371C313.77 114.879 313.982 114.443 314.323 114.064C314.668 113.686 315.1 113.388 315.619 113.172C316.141 112.956 316.709 112.849 317.323 112.849C318.187 112.849 318.833 113.038 319.261 113.417C319.689 113.792 319.959 114.292 320.073 114.917ZM335.364 110.053H336.773L335.501 117.758C335.368 118.553 335.063 119.263 334.586 119.888C334.109 120.51 333.501 121 332.762 121.36C332.023 121.716 331.198 121.894 330.285 121.894C329.372 121.894 328.607 121.716 327.989 121.36C327.372 121 326.929 120.51 326.66 119.888C326.391 119.263 326.323 118.553 326.455 117.758L327.728 110.053H329.137L327.876 117.644C327.785 118.212 327.828 118.718 328.006 119.161C328.184 119.6 328.484 119.947 328.904 120.201C329.328 120.451 329.864 120.576 330.512 120.576C331.16 120.576 331.737 120.451 332.245 120.201C332.753 119.947 333.165 119.6 333.484 119.161C333.806 118.718 334.012 118.212 334.103 117.644L335.364 110.053ZM344.792 114.917L343.519 115.258C343.474 115.053 343.394 114.856 343.28 114.667C343.171 114.474 343 114.316 342.769 114.195C342.542 114.07 342.231 114.008 341.837 114.008C341.303 114.008 340.839 114.131 340.445 114.377C340.051 114.619 339.826 114.928 339.769 115.303C339.712 115.633 339.788 115.896 339.996 116.093C340.205 116.29 340.553 116.451 341.042 116.576L342.292 116.894C343.042 117.087 343.576 117.377 343.894 117.763C344.216 118.146 344.326 118.644 344.224 119.258C344.14 119.758 343.922 120.205 343.57 120.599C343.218 120.992 342.767 121.303 342.218 121.53C341.669 121.758 341.057 121.871 340.383 121.871C339.485 121.871 338.777 121.678 338.258 121.292C337.739 120.902 337.462 120.337 337.428 119.599L338.769 119.28C338.803 119.746 338.97 120.099 339.269 120.337C339.572 120.572 339.996 120.689 340.542 120.689C341.167 120.689 341.688 120.557 342.104 120.292C342.521 120.023 342.758 119.701 342.815 119.326C342.871 119.019 342.811 118.763 342.633 118.559C342.458 118.354 342.155 118.201 341.724 118.099L340.337 117.758C339.565 117.564 339.023 117.269 338.712 116.871C338.405 116.474 338.303 115.974 338.405 115.371C338.489 114.879 338.701 114.443 339.042 114.064C339.387 113.686 339.818 113.388 340.337 113.172C340.86 112.956 341.428 112.849 342.042 112.849C342.905 112.849 343.551 113.038 343.979 113.417C344.407 113.792 344.678 114.292 344.792 114.917ZM349.469 121.871C348.632 121.871 347.941 121.686 347.396 121.314C346.85 120.939 346.469 120.417 346.253 119.746C346.038 119.072 346.003 118.288 346.151 117.394C346.299 116.5 346.592 115.712 347.032 115.03C347.471 114.345 348.019 113.811 348.674 113.428C349.329 113.042 350.049 112.849 350.833 112.849C351.288 112.849 351.725 112.924 352.146 113.076C352.566 113.227 352.93 113.474 353.236 113.814C353.543 114.152 353.757 114.599 353.878 115.155C354 115.712 353.992 116.398 353.856 117.212L353.765 117.78H347.038L347.219 116.621H352.583C352.67 116.129 352.647 115.689 352.515 115.303C352.386 114.917 352.161 114.612 351.839 114.388C351.521 114.165 351.117 114.053 350.628 114.053C350.125 114.053 349.655 114.189 349.219 114.462C348.784 114.731 348.42 115.072 348.128 115.485C347.837 115.894 347.655 116.311 347.583 116.735L347.424 117.735C347.31 118.458 347.327 119.034 347.475 119.462C347.627 119.89 347.89 120.199 348.265 120.388C348.64 120.574 349.11 120.667 349.674 120.667C350.034 120.667 350.365 120.617 350.668 120.519C350.971 120.417 351.242 120.265 351.481 120.064C351.719 119.86 351.92 119.606 352.083 119.303L353.31 119.667C353.102 120.106 352.808 120.492 352.43 120.826C352.055 121.155 351.615 121.413 351.111 121.599C350.611 121.78 350.064 121.871 349.469 121.871ZM355.177 121.689L356.631 112.962H357.927L357.699 114.28H357.79C358.018 113.849 358.364 113.498 358.83 113.229C359.296 112.96 359.79 112.826 360.313 112.826C360.415 112.826 360.539 112.828 360.682 112.831C360.826 112.831 360.938 112.837 361.018 112.849L360.79 114.212C360.745 114.201 360.643 114.184 360.484 114.161C360.324 114.135 360.154 114.121 359.972 114.121C359.548 114.121 359.156 114.21 358.796 114.388C358.436 114.563 358.135 114.805 357.893 115.116C357.65 115.422 357.495 115.773 357.427 116.167L356.518 121.689H355.177ZM365.843 121.689L367.775 110.053H374.797L374.593 111.303H368.979L368.32 115.235H373.57L373.366 116.485H368.116L367.457 120.439H373.161L372.957 121.689H365.843ZM377.678 112.962L379.178 116.53L381.86 112.962H383.405L379.86 117.326L381.951 121.689H380.405L378.883 118.303L376.224 121.689H374.678L378.178 117.326L376.133 112.962H377.678ZM383.319 124.962L385.33 112.962H386.626L386.398 114.349H386.557C386.679 114.197 386.845 114.004 387.057 113.769C387.273 113.53 387.563 113.318 387.927 113.133C388.294 112.943 388.762 112.849 389.33 112.849C390.065 112.849 390.681 113.032 391.177 113.4C391.673 113.767 392.023 114.288 392.228 114.962C392.432 115.636 392.459 116.432 392.307 117.349C392.156 118.273 391.866 119.074 391.438 119.752C391.01 120.426 390.487 120.949 389.87 121.32C389.253 121.688 388.58 121.871 387.853 121.871C387.292 121.871 386.859 121.778 386.552 121.593C386.245 121.403 386.021 121.189 385.881 120.951C385.741 120.708 385.633 120.508 385.557 120.349H385.444L384.671 124.962H383.319ZM385.921 117.326C385.815 117.985 385.815 118.566 385.921 119.07C386.031 119.57 386.249 119.962 386.574 120.246C386.904 120.527 387.338 120.667 387.876 120.667C388.436 120.667 388.927 120.519 389.347 120.224C389.771 119.924 390.12 119.523 390.393 119.019C390.669 118.511 390.86 117.947 390.967 117.326C391.065 116.712 391.061 116.159 390.955 115.667C390.849 115.171 390.633 114.778 390.307 114.491C389.982 114.199 389.535 114.053 388.967 114.053C388.421 114.053 387.938 114.191 387.518 114.468C387.101 114.741 386.756 115.123 386.484 115.616C386.215 116.104 386.027 116.674 385.921 117.326ZM397.266 121.871C396.429 121.871 395.738 121.686 395.192 121.314C394.647 120.939 394.266 120.417 394.05 119.746C393.834 119.072 393.8 118.288 393.948 117.394C394.096 116.5 394.389 115.712 394.829 115.03C395.268 114.345 395.815 113.811 396.471 113.428C397.126 113.042 397.846 112.849 398.63 112.849C399.084 112.849 399.522 112.924 399.942 113.076C400.363 113.227 400.726 113.474 401.033 113.814C401.34 114.152 401.554 114.599 401.675 115.155C401.797 115.712 401.789 116.398 401.653 117.212L401.562 117.78H394.834L395.016 116.621H400.38C400.467 116.129 400.444 115.689 400.312 115.303C400.183 114.917 399.958 114.612 399.636 114.388C399.317 114.165 398.914 114.053 398.425 114.053C397.922 114.053 397.452 114.189 397.016 114.462C396.581 114.731 396.217 115.072 395.925 115.485C395.634 115.894 395.452 116.311 395.38 116.735L395.221 117.735C395.107 118.458 395.124 119.034 395.272 119.462C395.423 119.89 395.687 120.199 396.062 120.388C396.437 120.574 396.906 120.667 397.471 120.667C397.831 120.667 398.162 120.617 398.465 120.519C398.768 120.417 399.039 120.265 399.278 120.064C399.516 119.86 399.717 119.606 399.88 119.303L401.107 119.667C400.899 120.106 400.605 120.492 400.226 120.826C399.851 121.155 399.412 121.413 398.908 121.599C398.408 121.78 397.861 121.871 397.266 121.871ZM402.974 121.689L404.428 112.962H405.724L405.496 114.28H405.587C405.815 113.849 406.161 113.498 406.627 113.229C407.093 112.96 407.587 112.826 408.11 112.826C408.212 112.826 408.335 112.828 408.479 112.831C408.623 112.831 408.735 112.837 408.815 112.849L408.587 114.212C408.542 114.201 408.44 114.184 408.28 114.161C408.121 114.135 407.951 114.121 407.769 114.121C407.345 114.121 406.953 114.21 406.593 114.388C406.233 114.563 405.932 114.805 405.69 115.116C405.447 115.422 405.292 115.773 405.224 116.167L404.315 121.689H402.974ZM408.958 121.689L410.413 112.962H411.753L410.299 121.689H408.958ZM411.492 111.485C411.231 111.485 411.005 111.396 410.816 111.218C410.63 111.04 410.538 110.826 410.538 110.576C410.538 110.326 410.63 110.112 410.816 109.934C411.005 109.756 411.231 109.667 411.492 109.667C411.753 109.667 411.977 109.756 412.163 109.934C412.352 110.112 412.447 110.326 412.447 110.576C412.447 110.826 412.352 111.04 412.163 111.218C411.977 111.396 411.753 111.485 411.492 111.485ZM416.391 121.871C415.554 121.871 414.863 121.686 414.317 121.314C413.772 120.939 413.391 120.417 413.175 119.746C412.959 119.072 412.925 118.288 413.073 117.394C413.221 116.5 413.514 115.712 413.954 115.03C414.393 114.345 414.94 113.811 415.596 113.428C416.251 113.042 416.971 112.849 417.755 112.849C418.209 112.849 418.647 112.924 419.067 113.076C419.488 113.227 419.851 113.474 420.158 113.814C420.465 114.152 420.679 114.599 420.8 115.155C420.922 115.712 420.914 116.398 420.778 117.212L420.687 117.78H413.959L414.141 116.621H419.505C419.592 116.129 419.569 115.689 419.437 115.303C419.308 114.917 419.083 114.612 418.761 114.388C418.442 114.165 418.039 114.053 417.55 114.053C417.047 114.053 416.577 114.189 416.141 114.462C415.706 114.731 415.342 115.072 415.05 115.485C414.759 115.894 414.577 116.311 414.505 116.735L414.346 117.735C414.232 118.458 414.249 119.034 414.397 119.462C414.548 119.89 414.812 120.199 415.187 120.388C415.562 120.574 416.031 120.667 416.596 120.667C416.956 120.667 417.287 120.617 417.59 120.519C417.893 120.417 418.164 120.265 418.403 120.064C418.641 119.86 418.842 119.606 419.005 119.303L420.232 119.667C420.024 120.106 419.73 120.492 419.351 120.826C418.976 121.155 418.537 121.413 418.033 121.599C417.533 121.78 416.986 121.871 416.391 121.871ZM424.303 116.439L423.44 121.689H422.099L423.553 112.962H424.849L424.621 114.326H424.735C425.008 113.883 425.377 113.527 425.843 113.258C426.309 112.985 426.871 112.849 427.53 112.849C428.114 112.849 428.606 112.97 429.008 113.212C429.413 113.451 429.699 113.814 429.866 114.303C430.036 114.788 430.061 115.402 429.94 116.144L429.008 121.689H427.667L428.576 116.235C428.69 115.553 428.601 115.019 428.309 114.633C428.021 114.246 427.565 114.053 426.94 114.053C426.508 114.053 426.108 114.146 425.741 114.331C425.377 114.517 425.068 114.788 424.815 115.144C424.565 115.5 424.394 115.932 424.303 116.439ZM434.981 121.871C434.159 121.871 433.485 121.678 432.958 121.292C432.435 120.905 432.072 120.373 431.867 119.695C431.663 119.017 431.632 118.242 431.776 117.371C431.92 116.485 432.212 115.703 432.651 115.025C433.091 114.343 433.638 113.811 434.293 113.428C434.949 113.042 435.67 112.849 436.458 112.849C437.072 112.849 437.606 112.962 438.06 113.189C438.515 113.417 438.865 113.735 439.111 114.144C439.358 114.553 439.473 115.03 439.458 115.576H438.117C438.079 115.178 437.909 114.826 437.606 114.519C437.306 114.208 436.863 114.053 436.276 114.053C435.753 114.053 435.272 114.189 434.833 114.462C434.394 114.731 434.024 115.112 433.725 115.604C433.426 116.093 433.223 116.667 433.117 117.326C433.003 118 433.013 118.587 433.146 119.087C433.278 119.587 433.519 119.975 433.867 120.252C434.216 120.528 434.655 120.667 435.185 120.667C435.534 120.667 435.86 120.606 436.163 120.485C436.466 120.364 436.735 120.189 436.969 119.962C437.204 119.735 437.39 119.462 437.526 119.144H438.867C438.7 119.659 438.433 120.123 438.066 120.536C437.699 120.945 437.253 121.271 436.731 121.513C436.208 121.752 435.625 121.871 434.981 121.871ZM444.032 121.871C443.195 121.871 442.503 121.686 441.958 121.314C441.413 120.939 441.032 120.417 440.816 119.746C440.6 119.072 440.566 118.288 440.714 117.394C440.861 116.5 441.155 115.712 441.594 115.03C442.034 114.345 442.581 113.811 443.236 113.428C443.892 113.042 444.611 112.849 445.396 112.849C445.85 112.849 446.288 112.924 446.708 113.076C447.128 113.227 447.492 113.474 447.799 113.814C448.106 114.152 448.32 114.599 448.441 115.155C448.562 115.712 448.555 116.398 448.418 117.212L448.327 117.78H441.6L441.782 116.621H447.146C447.233 116.129 447.21 115.689 447.077 115.303C446.949 114.917 446.723 114.612 446.401 114.388C446.083 114.165 445.68 114.053 445.191 114.053C444.687 114.053 444.217 114.189 443.782 114.462C443.346 114.731 442.983 115.072 442.691 115.485C442.399 115.894 442.217 116.311 442.146 116.735L441.986 117.735C441.873 118.458 441.89 119.034 442.038 119.462C442.189 119.89 442.452 120.199 442.827 120.388C443.202 120.574 443.672 120.667 444.236 120.667C444.596 120.667 444.928 120.617 445.231 120.519C445.534 120.417 445.805 120.265 446.043 120.064C446.282 119.86 446.483 119.606 446.646 119.303L447.873 119.667C447.664 120.106 447.371 120.492 446.992 120.826C446.617 121.155 446.178 121.413 445.674 121.599C445.174 121.78 444.627 121.871 444.032 121.871Z" fill="#0FC1B7"/>
<circle cx="111.424" cy="85.0002" r="48.9446" stroke="#D7E1F4" stroke-width="3"/>
<path fill-rule="evenodd" clip-rule="evenodd" d="M93.1821 88.7239L128.94 50.7256L113.379 81.2749L129.667 81.2763L93.9093 119.275L109.47 88.7253L93.1821 88.7239Z" fill="#D7E1F4"/>
<circle cx="565.992" cy="0.776551" r="6.30037" transform="rotate(180 565.992 0.776551)" stroke="#748098" stroke-width="1.22312"/>
<circle cx="622.141" cy="0.776551" r="6.30037" transform="rotate(180 622.141 0.776551)" fill="#748098" stroke="#748098" stroke-width="1.22312"/>
<circle cx="640.857" cy="0.776551" r="6.30037" transform="rotate(180 640.857 0.776551)" stroke="#748098" stroke-width="1.22312"/>
<circle cx="584.708" cy="19.4924" r="4.91193" transform="rotate(180 584.708 19.4924)" stroke="#748098" stroke-width="4"/>
<circle cx="603.424" cy="19.4924" r="6.30037" transform="rotate(180 603.424 19.4924)" stroke="#748098" stroke-width="1.22312"/>
<circle cx="622.141" cy="19.4924" r="6.30037" transform="rotate(180 622.141 19.4924)" stroke="#748098" stroke-width="1.22312"/>
<circle cx="659.573" cy="19.4924" r="4.91193" transform="rotate(180 659.573 19.4924)" stroke="#748098" stroke-width="4"/>
<circle cx="565.992" cy="38.2092" r="6.30037" transform="rotate(180 565.992 38.2092)" stroke="#748098" stroke-width="1.22312"/>
<circle cx="584.708" cy="38.2092" r="6.30037" transform="rotate(180 584.708 38.2092)" stroke="#748098" stroke-width="1.22312"/>
<circle cx="622.141" cy="38.2092" r="6.30037" transform="rotate(180 622.141 38.2092)" stroke="#748098" stroke-width="1.22312"/>
<circle cx="640.857" cy="38.2092" r="6.30037" transform="rotate(180 640.857 38.2092)" stroke="#748098" stroke-width="1.22312"/>
<circle cx="565.992" cy="56.926" r="4.91193" transform="rotate(180 565.992 56.926)" stroke="#748098" stroke-width="4"/>
<circle cx="603.424" cy="56.926" r="6.30037" transform="rotate(180 603.424 56.926)" stroke="#748098" stroke-width="1.22312"/>
<circle cx="622.141" cy="56.926" r="6.30037" transform="rotate(180 622.141 56.926)" stroke="#748098" stroke-width="1.22312"/>
<circle cx="640.857" cy="56.926" r="6.30037" transform="rotate(180 640.857 56.926)" fill="#748098" stroke="#748098" stroke-width="1.22312"/>
<circle cx="659.573" cy="56.926" r="6.30037" transform="rotate(180 659.573 56.926)" stroke="#748098" stroke-width="1.22312"/>
<circle cx="565.992" cy="75.6418" r="6.30037" transform="rotate(180 565.992 75.6418)" stroke="#748098" stroke-width="1.22312"/>
<circle cx="584.708" cy="75.6418" r="4.91193" transform="rotate(180 584.708 75.6418)" stroke="#748098" stroke-width="4"/>
<circle cx="640.857" cy="75.6418" r="4.91193" transform="rotate(180 640.857 75.6418)" stroke="#748098" stroke-width="4"/>
<circle cx="584.708" cy="94.3586" r="6.30037" transform="rotate(180 584.708 94.3586)" stroke="#748098" stroke-width="1.22312"/>
<circle cx="622.141" cy="94.3586" r="4.91193" transform="rotate(180 622.141 94.3586)" stroke="#748098" stroke-width="4"/>
<circle cx="640.857" cy="94.3586" r="6.30037" transform="rotate(180 640.857 94.3586)" stroke="#748098" stroke-width="1.22312"/>
<circle cx="659.573" cy="94.3586" r="6.30037" transform="rotate(180 659.573 94.3586)" fill="#748098" stroke="#748098" stroke-width="1.22312"/>
<circle cx="565.992" cy="113.074" r="6.30037" transform="rotate(180 565.992 113.074)" stroke="#748098" stroke-width="1.22312"/>
<circle cx="584.708" cy="113.074" r="4.91193" transform="rotate(180 584.708 113.074)" stroke="#748098" stroke-width="4"/>
<circle cx="603.424" cy="113.074" r="6.30037" transform="rotate(180 603.424 113.074)" stroke="#748098" stroke-width="1.22312"/>
<circle cx="622.141" cy="113.074" r="6.30037" transform="rotate(180 622.141 113.074)" stroke="#748098" stroke-width="1.22312"/>
<circle cx="640.857" cy="113.074" r="6.30037" transform="rotate(180 640.857 113.074)" stroke="#748098" stroke-width="1.22312"/>
<circle cx="659.573" cy="113.074" r="6.30037" transform="rotate(180 659.573 113.074)" stroke="#748098" stroke-width="1.22312"/>
<circle cx="603.424" cy="131.791" r="6.30037" transform="rotate(180 603.424 131.791)" fill="#748098" stroke="#748098" stroke-width="1.22312"/>
<circle cx="622.141" cy="131.791" r="6.30037" transform="rotate(180 622.141 131.791)" stroke="#748098" stroke-width="1.22312"/>
<circle cx="659.573" cy="131.791" r="6.30037" transform="rotate(180 659.573 131.791)" stroke="#748098" stroke-width="1.22312"/>
<circle cx="565.992" cy="150.507" r="6.30037" transform="rotate(180 565.992 150.507)" stroke="#748098" stroke-width="1.22312"/>
<circle cx="584.708" cy="150.507" r="6.30037" transform="rotate(180 584.708 150.507)" stroke="#748098" stroke-width="1.22312"/>
<circle cx="640.857" cy="150.507" r="4.91193" transform="rotate(180 640.857 150.507)" stroke="#748098" stroke-width="4"/>
<circle cx="603.424" cy="169.224" r="4.91193" transform="rotate(180 603.424 169.224)" stroke="#748098" stroke-width="4"/>
<circle cx="622.141" cy="169.224" r="6.30037" transform="rotate(180 622.141 169.224)" stroke="#748098" stroke-width="1.22312"/>
<circle cx="659.573" cy="169.224" r="6.30037" transform="rotate(180 659.573 169.224)" stroke="#748098" stroke-width="1.22312"/>
</g>
<defs>
<clipPath id="clip0_10507_2557">
<rect width="660" height="170" fill="white"/>
</clipPath>
</defs>
</svg>
